<?xml version="1.0" encoding="utf-8"?>
<!-- Generator: Adobe Illustrator 19.1.0, SVG Export Plug-In . SVG Version: 6.00 Build 0)  -->
<svg version="1.1" id="Layer_1" xmlns="http://www.w3.org/2000/svg" xmlns:xlink="http://www.w3.org/1999/xlink" x="0px" y="0px"
	 viewBox="0 0 64 64" enable-background="new 0 0 64 64" xml:space="preserve">
<g>
	<path opacity="0.4" fill="#3495D2" d="M33,10c-14.6,0-26.5,10-26.5,22.2c0,12.3,11.8,22.2,26.5,22.2s26.5-10,26.5-22.2
		C59.4,19.9,47.6,10,33,10z M33,48.9c-10.9,0-19.8-7.4-19.8-16.6S22,15.6,33,15.6S52.7,23,52.7,32.2S43.9,48.9,33,48.9z"/>
	<path fill="#3495D2" d="M26.2,12.4l-0.8,4.4l-0.5,3.3l-1.7-2.3c-3.6,1.7-6.4,4.3-8.2,7.4l-4.9-4.3c2.3-3.3,5.7-6.1,9.6-8l-1.3-1.8
		l4,0.7h0L26.2,12.4z"/>
	<path fill="#3495D2" d="M31.5,48.8l-0.2,5.6c-12.8-0.7-23.2-9-24.6-19.7l-2.2,0.1l2-2.2l3.3-3.5l3.3,3.1l2.4,2.2l-2.2,0.1
		C14.6,42.2,22.1,48.2,31.5,48.8z"/>
	<path fill="#3495D2" d="M52.6,47.1l1.5,1.5l-3.3,0l-4.5,0l0-4.1l0-3.7l2,2c2.8-2.9,4.5-6.5,4.5-10.5c0-0.9-0.1-1.8-0.3-2.7l6.1-2.9
		c0.5,1.8,0.8,3.7,0.8,5.6C59.4,38,56.8,43.2,52.6,47.1z"/>
</g>
</svg>
